<svg width="27" height="24" viewBox="0 0 27 24" fill="none" xmlns="http://www.w3.org/2000/svg">
<g clip-path="url(#clip0)">
<path d="M24.2609 9.85714H16.1967C15.9348 9.85714 15.7224 9.66525 15.7224 9.42857V2.14286C15.7224 0.959473 14.6604 0 13.3506 0C12.0407 0 10.9787 0.959473 10.9787 2.14286V9.42857C10.9787 9.66525 10.7663 9.85714 10.5044 9.85714H2.44018C1.13035 9.85714 0.0683594 10.8166 0.0683594 12C0.0683594 13.1834 1.13035 14.1429 2.44018 14.1429H10.5044C10.7663 14.1429 10.9787 14.3348 10.9787 14.5714V21.8571C10.9787 23.0405 12.0407 24 13.3506 24C14.6604 24 15.7224 23.0405 15.7224 21.8571V14.5714C15.7224 14.3348 15.9348 14.1429 16.1967 14.1429H24.2609C25.5708 14.1429 26.6327 13.1834 26.6327 12C26.6327 10.8166 25.5708 9.85714 24.2609 9.85714Z" fill="black"/>
</g>
<defs>
<clipPath id="clip0">
<rect width="26.5644" height="24" fill="white" transform="translate(0.0683594)"/>
</clipPath>
</defs>
</svg>
