<svg width="25" height="25" viewBox="0 0 25 25" fill="none" xmlns="http://www.w3.org/2000/svg">
<g clip-path="url(#clip0)">
<path d="M9.04297 22.7446C9.62982 24.0714 10.9579 24.9999 12.4995 24.9999C14.0411 24.9999 15.3692 24.0714 15.9561 22.7446H9.04297Z" fill="black"/>
<path d="M12.4997 2.38851C13.517 2.38851 14.4938 2.568 15.4003 2.89662V2.78496C15.4003 1.24933 14.1509 0 12.6154 0H12.3846C10.8489 0 9.59961 1.24933 9.59961 2.78496V2.8952C10.5056 2.56756 11.4821 2.38851 12.4997 2.38851Z" fill="black"/>
<path d="M21.6542 21.2774H3.34575C2.99938 21.2774 2.68211 21.0438 2.61006 20.705C2.53875 20.3695 2.69164 20.0384 3.00182 19.8951C3.07543 19.8474 3.62947 19.46 4.18414 18.2879C5.20286 16.1354 5.41669 13.1033 5.41669 10.9387C5.41669 7.03307 8.59415 3.85571 12.4997 3.85571C16.396 3.85571 19.5676 7.01776 19.5827 10.9106C19.583 10.9199 19.5832 10.9293 19.5832 10.9387C19.5832 13.1033 19.797 16.1354 20.8158 18.2879C21.3704 19.46 21.9244 19.8474 21.9981 19.8951C22.3083 20.0384 22.4612 20.3695 22.3898 20.705C22.3178 21.0438 22.0006 21.2774 21.6542 21.2774ZM22.0063 19.9003H22.0068H22.0063Z" fill="black"/>
</g>
<defs>
<clipPath id="clip0">
<rect width="25" height="25" fill="white"/>
</clipPath>
</defs>
</svg>
