<svg width="25" height="25" viewBox="0 0 25 25" fill="none" xmlns="http://www.w3.org/2000/svg">
<path d="M23.5349 1.46514C22.5902 0.520312 21.3341 0 19.998 0C18.6619 0 17.4058 0.520312 16.461 1.46509L2.48173 15.4444C2.36278 15.5633 2.2766 15.711 2.23148 15.873L0.0357787 23.7616C-0.0588991 24.1018 0.0374388 24.4667 0.287878 24.7158C0.473425 24.9003 0.722058 25 0.976648 25C1.06561 25 1.15536 24.9878 1.2434 24.9628L9.13192 22.722C9.46473 22.6275 9.72274 22.3639 9.81005 22.0291C9.89735 21.6942 9.80096 21.3382 9.55668 21.0932L4.58344 16.1048L16.1711 4.51714L20.4806 8.82661L11.6098 17.6732C11.2279 18.0541 11.227 18.6724 11.6079 19.0543C11.9887 19.4362 12.6071 19.437 12.989 19.0562L23.5349 8.53901C24.4797 7.59424 25 6.33813 25 5.00205C25 3.66597 24.4797 2.40986 23.5349 1.46514ZM7.0017 21.2968L2.38412 22.6084L3.67733 17.9623L7.0017 21.2968ZM22.1548 7.15698L21.8635 7.44746L17.5522 3.13608L17.8421 2.84614C18.418 2.27026 19.1836 1.95312 19.998 1.95312C20.8124 1.95312 21.578 2.27026 22.1538 2.84619C22.7297 3.42202 23.0469 4.18765 23.0469 5.00205C23.0469 5.81646 22.7297 6.58208 22.1548 7.15698Z" fill="black"/>
</svg>
