<svg width="30" height="30" viewBox="0 0 30 30" fill="none" xmlns="http://www.w3.org/2000/svg">
<path d="M15 11.25C17.0712 11.25 18.75 12.9288 18.75 15C18.75 17.0712 17.0712 18.75 15 18.75C12.9288 18.75 11.25 17.0712 11.25 15C11.25 12.9288 12.9288 11.25 15 11.25Z" fill="#8D98FF"/>
<path d="M3.75 11.25C5.82115 11.25 7.5 12.9288 7.5 15C7.5 17.0712 5.82115 18.75 3.75 18.75C1.67885 18.75 0 17.0712 0 15C0 12.9288 1.67885 11.25 3.75 11.25Z" fill="#8D98FF"/>
<path d="M26.25 11.25C28.3212 11.25 30 12.9288 30 15C30 17.0712 28.3212 18.75 26.25 18.75C24.1788 18.75 22.5 17.0712 22.5 15C22.5 12.9288 24.1788 11.25 26.25 11.25Z" fill="#8D98FF"/>
</svg>
