<svg width="30" height="30" viewBox="0 0 30 30" fill="none" xmlns="http://www.w3.org/2000/svg">
<path fill-rule="evenodd" clip-rule="evenodd" d="M16.024 30H1.65586C0.741094 30 0 29.2584 0 28.3441V1.65586C0 0.741094 0.741094 0 1.65586 0H28.3444C29.2587 0 30 0.741094 30 1.65586V28.3441C30 29.2587 29.2587 30 28.3444 30H20.6995V18.3823H24.5991L25.1829 13.8546H20.6995V10.9641C20.6995 9.6532 21.0635 8.76 22.9432 8.76L25.3406 8.75906V4.70953C24.926 4.65445 23.5029 4.53117 21.847 4.53117C18.3902 4.53117 16.0237 6.64125 16.0237 10.5159V13.8548H12.1144V18.3825H16.024V30Z" fill="#4460A0"/>
</svg>
