<svg width="26" height="25" viewBox="0 0 26 25" fill="none" xmlns="http://www.w3.org/2000/svg">
<g clip-path="url(#clip0)">
<path d="M23.1463 5.26813C22.0732 4.19499 20.6464 3.60402 19.1288 3.60402C17.6111 3.60402 16.1843 4.19504 15.1111 5.26813L7.87916 12.5001C6.54997 13.8293 6.54997 15.992 7.87922 17.3213C9.20847 18.6505 11.3712 18.6504 12.7004 17.3212L16.8735 13.1481C17.3173 12.7043 17.3173 11.9848 16.8735 11.541C16.4298 11.0972 15.7102 11.0972 15.2665 11.541L11.0934 15.7141C10.6503 16.1572 9.92929 16.1572 9.48627 15.7143C9.04321 15.2712 9.04315 14.5502 9.48622 14.1072L16.7182 6.87519C17.3621 6.23129 18.2183 5.87672 19.1288 5.87672C20.0395 5.87672 20.8955 6.23129 21.5393 6.87513C22.8686 8.20438 22.8686 10.3671 21.5395 11.6963L13.5041 19.7317C11.2887 21.9469 7.68407 21.947 5.4688 19.7317C4.39566 18.6586 3.80453 17.2318 3.80458 15.7142C3.80453 14.1965 4.3956 12.7697 5.46879 11.6965L13.504 3.66102C13.9478 3.2172 13.9478 2.49773 13.504 2.05396C13.0603 1.6102 12.3407 1.6102 11.897 2.05396L3.86174 10.0894C2.35925 11.5918 1.53183 13.5894 1.53178 15.7142C1.53178 17.8389 2.3592 19.8365 3.86169 21.3389C6.96304 24.4402 12.0095 24.4402 15.1111 21.3389L23.1465 13.3034C25.3617 11.0881 25.3616 7.48346 23.1463 5.26813Z" fill="black"/>
</g>
<defs>
<clipPath id="clip0">
<rect x="0.200684" width="25" height="25" rx="5" fill="white"/>
</clipPath>
</defs>
</svg>
