<svg width="30" height="30" viewBox="0 0 30 30" fill="none" xmlns="http://www.w3.org/2000/svg">
<path fill-rule="evenodd" clip-rule="evenodd" d="M6.46526 15C6.46526 14.0257 6.62698 13.0915 6.91596 12.2154L1.8605 8.35498C0.875183 10.3554 0.320183 12.6096 0.320183 15C0.320183 17.3885 0.874714 19.6411 1.85839 21.6403L6.91104 17.7724C6.62487 16.9003 6.46526 15.9696 6.46526 15Z" fill="#FBBC05"/>
<path fill-rule="evenodd" clip-rule="evenodd" d="M15.3415 6.13641C17.4581 6.13641 19.3699 6.88641 20.872 8.11359L25.2417 3.75C22.579 1.4318 19.1651 0 15.3415 0C9.40525 0 4.30337 3.39469 1.86048 8.355L6.91572 12.2154C8.08056 8.67961 11.401 6.13641 15.3415 6.13641Z" fill="#EA4335"/>
<path fill-rule="evenodd" clip-rule="evenodd" d="M15.3415 23.8637C11.4012 23.8637 8.08079 21.3204 6.91595 17.7847L1.86048 21.6444C4.30337 26.6054 9.40525 30.0001 15.3415 30.0001C19.0052 30.0001 22.5033 28.699 25.1285 26.2615L20.3299 22.5519C18.9759 23.4047 17.2709 23.8637 15.3415 23.8637Z" fill="#34A853"/>
<path fill-rule="evenodd" clip-rule="evenodd" d="M29.6798 15.0001C29.6798 14.1137 29.5432 13.1591 29.3383 12.2729H15.3415V18.0683H23.3983C22.9954 20.0444 21.899 21.5633 20.3299 22.5519L25.1285 26.2616C27.8861 23.7022 29.6798 19.8894 29.6798 15.0001Z" fill="#4285F4"/>
</svg>
