<svg width="16" height="16" viewBox="0 0 16 16" fill="none" xmlns="http://www.w3.org/2000/svg">
<g clip-path="url(#clip0)">
<path d="M2.40237 16.0002H13.6024C14.4848 16.0002 15.2024 15.2826 15.2024 14.4002V7.20016C15.2025 7.09509 15.1818 6.99104 15.1416 6.89397C15.1014 6.79691 15.0424 6.70875 14.968 6.63456L8.56797 0.234561C8.49374 0.160204 8.40557 0.101214 8.30852 0.0609654C8.21147 0.0207169 8.10744 0 8.00237 0C7.8973 0 7.79327 0.0207169 7.69621 0.0609654C7.59916 0.101214 7.511 0.160204 7.43677 0.234561L1.03677 6.63456C0.96237 6.70875 0.903363 6.79691 0.863137 6.89397C0.822912 6.99104 0.80226 7.09509 0.802369 7.20016V14.4002C0.802369 15.2826 1.51997 16.0002 2.40237 16.0002ZM6.40237 14.4002V10.4002H9.60237V14.4002H6.40237ZM2.40237 7.53136L8.00237 1.93136L13.6024 7.53136L13.6032 14.4002H11.2024V10.4002C11.2024 9.51776 10.4848 8.80016 9.60237 8.80016H6.40237C5.51997 8.80016 4.80237 9.51776 4.80237 10.4002V14.4002H2.40237V7.53136Z" fill="#889ABD"/>
</g>
<defs>
<clipPath id="clip0">
<rect width="16" height="16" fill="white"/>
</clipPath>
</defs>
</svg>
