<svg width="25" height="25" viewBox="0 0 25 25" fill="none" xmlns="http://www.w3.org/2000/svg">
<path d="M22.5806 3.20972H2.41935C1.08871 3.20972 0 3.88472 0 4.70972C0 5.53472 1.08871 6.20972 2.41935 6.20972H22.5806C23.9113 6.20972 25 5.53472 25 4.70972C25 3.88472 23.9113 3.20972 22.5806 3.20972Z" fill="black"/>
<path d="M22.5806 11.2097H2.41935C1.08871 11.2097 0 11.8847 0 12.7097C0 13.5347 1.08871 14.2097 2.41935 14.2097H22.5806C23.9113 14.2097 25 13.5347 25 12.7097C25 11.8847 23.9113 11.2097 22.5806 11.2097Z" fill="black"/>
<path d="M22.5806 19.2097H2.41935C1.08871 19.2097 0 19.8847 0 20.7097C0 21.5347 1.08871 22.2097 2.41935 22.2097H22.5806C23.9113 22.2097 25 21.5347 25 20.7097C25 19.8847 23.9113 19.2097 22.5806 19.2097Z" fill="black"/>
</svg>
