<svg width="88" height="100" viewBox="0 0 88 100" fill="none" xmlns="http://www.w3.org/2000/svg">
<path d="M74.2737 51.3402V41.9922C74.2737 28.3551 65.209 16.7967 52.7893 13.0215V8.78906C52.7893 3.94277 48.8465 0 44.0002 0C39.1539 0 35.2112 3.94277 35.2112 8.78906V13.0215C22.7912 16.7967 13.7268 28.3549 13.7268 41.9922V51.3402C13.7268 63.3191 9.16078 74.6777 0.869955 83.3238C0.0574548 84.1711 -0.170866 85.4213 0.289681 86.501C0.750228 87.5807 1.81078 88.2812 2.9846 88.2812H29.6465C31.0075 94.9594 36.9262 100 44.0002 100C51.0744 100 56.9928 94.9594 58.3539 88.2812H85.0159C86.1897 88.2812 87.25 87.5807 87.7106 86.501C88.1711 85.4213 87.9428 84.1711 87.1305 83.3238C78.8397 74.6777 74.2737 63.3189 74.2737 51.3402ZM41.0705 8.78906C41.0705 7.17363 42.3848 5.85938 44.0002 5.85938C45.6157 5.85938 46.9299 7.17363 46.9299 8.78906V11.8609C45.9657 11.768 44.9885 11.7188 44.0002 11.7188C43.0119 11.7188 42.0348 11.768 41.0705 11.8609V8.78906ZM44.0002 94.1406C40.1809 94.1406 36.9244 91.6912 35.7151 88.2812H52.2854C51.076 91.6912 47.8196 94.1406 44.0002 94.1406ZM9.29906 82.4219C15.9711 73.4781 19.5862 62.6547 19.5862 51.3402V41.9922C19.5862 28.5303 30.5383 17.5781 44.0002 17.5781C57.4621 17.5781 68.4143 28.5303 68.4143 41.9922V51.3402C68.4143 62.6547 72.0293 73.4781 78.7016 82.4219H9.29906Z" fill="#C0C0C0"/>
<path d="M82.0859 41.9923C82.0859 43.6103 83.3977 44.922 85.0156 44.922C86.6336 44.922 87.9453 43.6103 87.9453 41.9923C87.9453 30.254 83.3742 19.2183 75.074 10.9181C73.9301 9.77415 72.075 9.77395 70.9309 10.9181C69.7867 12.0622 69.7867 13.9171 70.9309 15.0613C78.1244 22.2548 82.0859 31.8191 82.0859 41.9923Z" fill="#C0C0C0"/>
<path d="M2.98438 44.9219C4.60234 44.9219 5.91406 43.6102 5.91406 41.9922C5.91406 31.8191 9.87578 22.2549 17.0691 15.0613C18.2133 13.9172 18.2133 12.0623 17.0691 10.9182C15.9252 9.77402 14.0701 9.77402 12.926 10.9182C4.62578 19.2184 0.0546875 30.2539 0.0546875 41.9922C0.0546875 43.6102 1.36641 44.9219 2.98438 44.9219Z" fill="#C0C0C0"/>
</svg>
