<svg width="16" height="16" viewBox="0 0 16 16" fill="none" xmlns="http://www.w3.org/2000/svg">
<g clip-path="url(#clip0)">
<path fill-rule="evenodd" clip-rule="evenodd" d="M1.75 0C1.28587 0 0.840752 0.184374 0.512563 0.512563C0.184374 0.840752 0 1.28587 0 1.75L0 14.25C0 15.216 0.784 16 1.75 16H14.25C14.7141 16 15.1592 15.8156 15.4874 15.4874C15.8156 15.1592 16 14.7141 16 14.25V1.75C16 1.28587 15.8156 0.840752 15.4874 0.512563C15.1592 0.184374 14.7141 0 14.25 0H1.75ZM1.5 1.75C1.5 1.6837 1.52634 1.62011 1.57322 1.57322C1.62011 1.52634 1.6837 1.5 1.75 1.5H14.25C14.3163 1.5 14.3799 1.52634 14.4268 1.57322C14.4737 1.62011 14.5 1.6837 14.5 1.75V14.25C14.5 14.3163 14.4737 14.3799 14.4268 14.4268C14.3799 14.4737 14.3163 14.5 14.25 14.5H1.75C1.6837 14.5 1.62011 14.4737 1.57322 14.4268C1.52634 14.3799 1.5 14.3163 1.5 14.25V1.75ZM11.75 3C11.5511 3 11.3603 3.07902 11.2197 3.21967C11.079 3.36032 11 3.55109 11 3.75V11.25C11 11.4489 11.079 11.6397 11.2197 11.7803C11.3603 11.921 11.5511 12 11.75 12C11.9489 12 12.1397 11.921 12.2803 11.7803C12.421 11.6397 12.5 11.4489 12.5 11.25V3.75C12.5 3.55109 12.421 3.36032 12.2803 3.21967C12.1397 3.07902 11.9489 3 11.75 3ZM3.5 3.75C3.5 3.55109 3.57902 3.36032 3.71967 3.21967C3.86032 3.07902 4.05109 3 4.25 3C4.44891 3 4.63968 3.07902 4.78033 3.21967C4.92098 3.36032 5 3.55109 5 3.75V9.25C5 9.44891 4.92098 9.63968 4.78033 9.78033C4.63968 9.92098 4.44891 10 4.25 10C4.05109 10 3.86032 9.92098 3.71967 9.78033C3.57902 9.63968 3.5 9.44891 3.5 9.25V3.75ZM8 3C7.80109 3 7.61032 3.07902 7.46967 3.21967C7.32902 3.36032 7.25 3.55109 7.25 3.75V7.25C7.25 7.44891 7.32902 7.63968 7.46967 7.78033C7.61032 7.92098 7.80109 8 8 8C8.19891 8 8.38968 7.92098 8.53033 7.78033C8.67098 7.63968 8.75 7.44891 8.75 7.25V3.75C8.75 3.55109 8.67098 3.36032 8.53033 3.21967C8.38968 3.07902 8.19891 3 8 3Z" fill="#889ABD"/>
</g>
<defs>
<clipPath id="clip0">
<rect width="16" height="16" fill="white"/>
</clipPath>
</defs>
</svg>
