<svg width="20" height="20" viewBox="0 0 20 20" fill="none" xmlns="http://www.w3.org/2000/svg">
<path d="M13.839 11.868C16.2398 8.47788 15.4368 3.78356 12.0467 1.38335C8.65659 -1.01686 3.96227 -0.214494 1.56206 3.1762C-0.838147 6.56632 -0.0357826 11.2601 3.35491 13.6603C5.77462 15.3734 8.97375 15.5053 11.5259 13.9981L17.0714 19.5103C17.6701 20.1406 18.6664 20.1658 19.2967 19.567C19.927 18.9688 19.9522 17.9726 19.354 17.3423C19.3351 17.3222 19.3167 17.3039 19.2967 17.285L13.839 11.868ZM7.69594 12.3819C5.01699 12.3825 2.84504 10.2122 2.84332 7.53328C2.84275 4.85434 5.01298 2.68239 7.69249 2.68124C10.368 2.6801 12.5388 4.84688 12.544 7.52239C12.5485 10.2019 10.3795 12.3773 7.69938 12.3819C7.69823 12.3819 7.69766 12.3819 7.69594 12.3819Z" fill="black"/>
</svg>
