<svg width="22" height="24" viewBox="0 0 22 24" fill="none" xmlns="http://www.w3.org/2000/svg">
<path d="M21.0547 19.3012C20.5073 18.0046 19.713 16.8268 18.7159 15.8335C17.7218 14.8374 16.5443 14.0431 15.2482 13.4947C15.2366 13.4889 15.225 13.486 15.2134 13.4802C17.0212 12.1744 18.1964 10.0474 18.1964 7.6476C18.1964 3.67215 14.9755 0.451172 11 0.451172C7.02457 0.451172 3.80359 3.67215 3.80359 7.6476C3.80359 10.0474 4.97881 12.1744 6.78663 13.4831C6.77502 13.4889 6.76341 13.4918 6.75181 13.4976C5.45181 14.046 4.28529 14.8324 3.28417 15.8364C2.28802 16.8305 1.49378 18.008 0.945333 19.3041C0.406535 20.5729 0.11595 21.9332 0.089306 23.3114C0.0885315 23.3424 0.0939637 23.3732 0.105283 23.4021C0.116602 23.4309 0.133578 23.4572 0.155212 23.4793C0.176847 23.5015 0.2027 23.5191 0.23125 23.5312C0.2598 23.5432 0.290469 23.5494 0.321449 23.5494H2.06252C2.1902 23.5494 2.29176 23.4478 2.29466 23.323C2.3527 21.0829 3.25225 18.9849 4.84243 17.3947C6.48774 15.7494 8.67279 14.844 11 14.844C13.3273 14.844 15.5123 15.7494 17.1576 17.3947C18.7478 18.9849 19.6473 21.0829 19.7054 23.323C19.7083 23.4507 19.8098 23.5494 19.9375 23.5494H21.6786C21.7096 23.5494 21.7402 23.5432 21.7688 23.5312C21.7973 23.5191 21.8232 23.5015 21.8448 23.4793C21.8665 23.4572 21.8834 23.4309 21.8948 23.4021C21.9061 23.3732 21.9115 23.3424 21.9107 23.3114C21.8817 21.9244 21.5944 20.5751 21.0547 19.3012ZM11 12.6387C9.6681 12.6387 8.41453 12.1193 7.47145 11.1762C6.52837 10.2331 6.00895 8.97952 6.00895 7.6476C6.00895 6.31568 6.52837 5.06211 7.47145 4.11903C8.41453 3.17595 9.6681 2.65653 11 2.65653C12.3319 2.65653 13.5855 3.17595 14.5286 4.11903C15.4717 5.06211 15.9911 6.31568 15.9911 7.6476C15.9911 8.97952 15.4717 10.2331 14.5286 11.1762C13.5855 12.1193 12.3319 12.6387 11 12.6387Z" fill="#FCFCFD"/>
</svg>
