<svg width="28" height="28" viewBox="0 0 28 28" fill="none" xmlns="http://www.w3.org/2000/svg">
<path d="M13.9999 0.152344C6.35166 0.152344 0.151855 6.35214 0.151855 14.0003C0.151855 21.6485 6.35166 27.8483 13.9999 27.8483C21.6481 27.8483 27.8479 21.6485 27.8479 14.0003C27.8479 6.35214 21.6481 0.152344 13.9999 0.152344ZM21.4423 19.2554C20.8513 19.625 18.4498 19.7351 17.8684 19.3127C17.5495 19.0811 17.2579 18.7913 16.981 18.5153C16.7872 18.3224 16.5673 18.2288 16.4008 18.0194C16.2649 17.8481 16.1716 17.6459 16.0285 17.4767C15.787 17.1929 15.4153 16.9514 15.1213 17.2982C14.6785 17.8199 15.1909 18.8444 14.6005 19.2341C14.4025 19.3649 14.2027 19.4027 13.9552 19.3841L13.4071 19.409C13.0852 19.4153 12.5752 19.4183 12.2089 19.3523C11.8003 19.2785 11.4628 19.0553 11.0932 18.8915C10.3918 18.5804 9.72366 18.1565 9.21516 17.5694C7.83126 15.9704 5.97246 13.7714 5.25036 11.7611C5.10186 11.348 4.70946 10.5299 5.08146 10.1756C5.58726 9.80814 8.06976 9.70464 8.45706 10.2728C8.61426 10.5038 8.71356 10.8416 8.82486 11.1035C8.96346 11.4299 9.03846 11.7374 9.25506 12.0263C9.44676 12.2825 9.58806 12.5402 9.73626 12.821C9.90276 13.1363 10.06 13.4387 10.2625 13.7288C10.3999 13.9262 10.7632 14.3189 10.9927 14.348C11.5531 14.4197 11.5183 13.058 11.4766 12.7256C11.4367 12.4052 11.4265 12.0653 11.437 11.7404C11.446 11.4632 11.4709 11.0726 11.3068 10.8464C11.0392 10.4774 10.4431 10.7534 10.3966 10.2575C10.495 10.1168 10.4743 9.99204 11.1316 9.77544C11.6494 9.60534 11.9839 9.61074 12.3253 9.63804C13.0213 9.69384 13.7593 9.50544 14.4313 9.73104C15.0733 9.94734 14.974 10.8596 14.9524 11.4062C14.9233 12.1523 14.9545 12.8807 14.9524 13.6382C14.9515 13.9829 14.9377 14.3186 15.3583 14.2904C15.7525 14.2643 15.7927 13.9325 15.9808 13.6589C16.2424 13.2773 16.4827 12.8903 16.7491 12.5102C17.1082 11.9963 17.2168 11.4188 17.5549 10.8923C17.6758 10.7042 17.7799 10.3034 17.9662 10.1546C18.1072 10.0415 18.3751 10.1006 18.5458 10.1006H18.9517C19.2622 10.1006 19.579 10.0982 19.8982 10.1093C20.3578 10.1252 20.8726 10.0196 21.3283 10.0841C23.2948 10.3616 18.8566 14.5655 19.0876 15.3161C19.2472 15.8345 20.2597 16.4138 20.6251 16.8383C21.1102 17.4038 22.6036 18.5279 21.4423 19.2554Z" fill="#4C75A3"/>
</svg>
