<svg width="30" height="30" viewBox="0 0 30 30" fill="none" xmlns="http://www.w3.org/2000/svg">
<path d="M29.9231 28.0582C29.9231 29.0872 29.0867 29.9236 28.0577 29.9236H1.94205C0.913203 29.9236 0.0766602 29.0872 0.0766602 28.0582V1.94254C0.0766602 0.913633 0.913203 0.0771484 1.94205 0.0771484H28.0577C29.0867 0.0771484 29.9231 0.913633 29.9231 1.94254V28.0582Z" fill="#ED1F24"/>
<path d="M18.3675 6.17383H15.6928C13.0646 6.17383 10.8358 8.17434 10.8358 12.0582C10.8358 14.3882 11.9151 16.1061 13.8388 16.9536L10.2492 23.4498C10.1317 23.6618 10.2492 23.8263 10.4368 23.8263H12.1028C12.2434 23.8263 12.3378 23.7794 12.3846 23.6618L15.6459 17.2831H16.819V23.6618C16.819 23.732 16.8892 23.8263 16.983 23.8263H18.438C18.5786 23.8263 18.6257 23.7557 18.6257 23.6385V6.4092C18.6256 6.24443 18.5318 6.17383 18.3675 6.17383ZM16.819 15.777H15.8335C14.2851 15.777 12.7835 14.6472 12.7835 11.8229C12.7835 8.88033 14.1912 7.68004 15.6223 7.68004H16.819V15.777H16.819Z" fill="white"/>
</svg>
